<svg width="241" height="241" viewBox="0 0 241 241" fill="none" xmlns="http://www.w3.org/2000/svg">
<path d="M8.86666 2.86666C1.39999 7.39999 0.06666 12.4667 0.599993 35.6667C0.999993 53.9333 1.26666 56.6 3.79999 59.9333C9.93333 68.3333 9.53333 68.3333 75.6667 68.3333C141.8 68.3333 141.4 68.3333 147.533 59.9333C150.067 56.6 150.333 53.9333 150.733 35.6667C151.267 12.3333 150.067 7.79999 142.333 2.99999C138.2 0.466658 135.8 0.333325 75.5333 0.333325C16.7333 0.333325 12.7333 0.466658 8.86666 2.86666Z" fill="#C026D3"/>
<path d="M183.533 2.86668C176.333 7.26668 175 12.2 175 34.7333C175 53.1333 175.267 54.8667 178.067 59.1333C183.4 67.2667 187.8 68.4667 209 68.0667C225.8 67.6667 228.067 67.4 231.8 64.7333C239 59.5333 240.333 54.8667 240.333 33.6667C240.333 2.60001 238.067 0.333347 207.533 0.333347C190.467 0.333347 187.133 0.733347 183.533 2.86668Z" fill="#C026D3"/>
<path d="M11 88.6C1.66666 93.4 0.333328 97.2667 0.333328 120.333C0.333328 143.4 1.66666 147.267 11 152.067C16.4667 154.867 18.3333 155.133 34.3333 154.733C62.7333 154.067 65.6667 150.867 65.6667 121C65.6667 105.533 65.1333 101.4 63.1333 96.7333C59.1333 88.0667 54.8667 86.4667 34.3333 85.9333C18.3333 85.5333 16.4667 85.8 11 88.6Z" fill="#C026D3"/>
<path d="M96.7333 88.2C92.7333 90.0667 90.3333 92.3333 88.4667 96.2C85.8 101.4 85.6667 103.667 85.6667 163C85.6667 230.333 85.6667 230.067 93.5333 236.733C97.8 240.333 98.0667 240.333 117.933 240.333C135.8 240.333 138.467 240.067 142.333 237.667C151 232.333 151 232.733 151 163.4C151 92.2 151.267 94.2 140.333 88.6C135.133 86.0667 132.467 85.6667 118.333 85.6667C105.533 85.6667 101.267 86.2 96.7333 88.2Z" fill="#C026D3"/>
<path d="M185.667 88.6C176.333 93.4 175 97.2667 175 120.333C175 143.4 176.333 147.267 185.667 152.067C191.133 154.867 193 155.133 209 154.733C229.533 154.2 233.8 152.6 237.8 143.933C239.8 139.267 240.333 135.133 240.333 119.667C240.333 97.2667 239 93.4 229.667 88.6C224.467 86.0667 221.667 85.6667 207.667 85.6667C193.667 85.6667 190.867 86.0667 185.667 88.6Z" fill="#C026D3"/>
<path d="M11 174.6C8.46666 175.933 5 179 3.4 181.533C0.599995 185.8 0.333328 187.533 0.333328 205.933C0.333328 238.067 2.46666 240.333 33 240.333C63.4 240.333 65.6667 237.933 65.6667 207C65.6667 185.8 64.3333 181.133 57.1333 175.933C53.4 173.267 51.1333 173 34.3333 172.6C18.4667 172.333 15 172.6 11 174.6Z" fill="#C026D3"/>
<path d="M185.667 174.6C183.133 175.933 179.667 179 178.067 181.533C175.267 185.8 175 187.533 175 205.933C175 238.2 177 240.333 208.067 240.333C227.933 240.333 228.2 240.333 232.467 236.733C239.267 231 240.333 226.6 240.333 206.067C240.333 185.8 239 181 231.933 175.8C228.6 173.267 225.933 173 209.267 172.6C193.267 172.333 189.667 172.6 185.667 174.6Z" fill="#C026D3"/>
</svg>
